#N canvas 842 207 450 300 10;
#X obj 82 179 snapshot~;
#X obj 127 99 tgl 15 0 empty empty empty 17 7 0 10 -262144 -1 -1 0
1;
#X obj 119 147 bng 15 250 50 0 empty empty empty 17 7 0 10 -262144
-1 -1;
#X obj 32 69 inlet~;
#X floatatom 241 84 5 0 0 0 - - -, f 5;
#X obj 121 112 metro;
#X obj 108 244 outlet;
#X obj 248 52 inlet;
#X floatatom 33 234 5 0 0 0 - - -, f 5;
#X obj 130 68 inlet;
#X text 60 0 ccreated by Blaise and Daniel;
#X text 216 39 inlet for time;
#X text 7 36 inlet for the signal;
#X text 131 26 inlet for toggle;
#X connect 0 0 6 0;
#X connect 0 0 8 0;
#X connect 1 0 5 0;
#X connect 2 0 0 0;
#X connect 3 0 0 0;
#X connect 4 0 5 1;
#X connect 5 0 2 0;
#X connect 7 0 4 0;
#X connect 9 0 1 0;
